<?xml version="1.0" encoding="utf-8"?>
<!-- Generator: Adobe Illustrator 17.0.0, SVG Export Plug-In . SVG Version: 6.00 Build 0)  -->
<!DOCTYPE svg PUBLIC "-//W3C//DTD SVG 1.1//EN" "http://www.w3.org/Graphics/SVG/1.1/DTD/svg11.dtd">
<svg version="1.1" id="Calque_1" xmlns="http://www.w3.org/2000/svg" xmlns:xlink="http://www.w3.org/1999/xlink" x="0px" y="0px"
	 width="100px" height="100px" viewBox="0 0 100 100" enable-background="new 0 0 100 100" xml:space="preserve">
<g>
	<g>
		<path fill="#FFFFFF" d="M48.893,50.779C35.659,50.65,25.429,40.116,25.574,26.767C25.72,13.377,36.153,3.303,49.676,3.495
			c13.473,0.192,23.509,10.545,23.32,24.056C72.809,40.887,62.408,50.91,48.893,50.779z"/>
		<path fill="#FFFFFF" d="M31.507,50.351c5.115,14.056,10.056,27.634,15.174,41.699c-14.244,0-27.74,0-41.217,0
			C4.664,74.869,17.433,54.29,31.507,50.351z"/>
		<path fill="#FFFFFF" d="M51.921,91.877c5.159-14.139,10.117-27.728,15.067-41.295c15.801,3.899,26.624,25.857,26.328,41.295
			C79.834,91.877,66.324,91.877,51.921,91.877z"/>
	</g>
	<g>
		<path fill="#FFFFFF" d="M49.203,84.854c-0.552-1.206-0.85-1.791-1.093-2.397c-1.366-3.413-2.462-6.965-4.152-10.208
			c-1.606-3.082-0.251-5.653,0.582-8.38c0.108-0.353,0.811-0.731,1.248-0.744c2.317-0.065,4.638-0.033,6.957,0.011
			c0.363,0.007,0.989,0.18,1.04,0.389c0.601,2.434,2.345,4.67,1.216,7.415c-1.606,3.903-3.128,7.841-4.702,11.757
			C50.084,83.232,49.778,83.731,49.203,84.854z"/>
	</g>
	<path fill="#FFFFFF" d="M56,60.64c0,0.751-0.609,1.36-1.36,1.36H43.36C42.609,62,42,61.391,42,60.64v-4.28
		c0-0.751,0.609-1.36,1.36-1.36h11.28c0.751,0,1.36,0.609,1.36,1.36V60.64z"/>
</g>
</svg>
